<svg width="17" height="17" viewBox="0 0 17 17" fill="none" xmlns="http://www.w3.org/2000/svg">
<path d="M12.3157 14.5232C12.6911 14.8903 12.6909 15.4943 12.3154 15.8612C11.9518 16.2164 11.3712 16.2163 11.0078 15.861L4.37084 9.3734C4.25332 9.25921 4.16005 9.12342 4.09641 8.97384C4.03276 8.82426 4 8.66386 4 8.50185C4 8.33985 4.03276 8.17944 4.09641 8.02986C4.16005 7.88029 4.25332 7.74449 4.37084 7.6303L11.0078 1.13928C11.3712 0.783932 11.9518 0.783907 12.3152 1.13923C12.6902 1.50594 12.6902 2.10936 12.3152 2.4761L6.15597 8.5L12.3157 14.5232Z" fill="#4190FF"/>
</svg>
