<svg width="155" height="155" viewBox="0 0 155 155" fill="none" xmlns="http://www.w3.org/2000/svg">
<path d="M77.3066 0C120.109 0 154.807 34.6979 154.807 77.5C154.807 120.302 120.109 155 77.3066 155C36.6936 155 3.37784 123.76 0.0761719 84H87.5146L59.5732 111.941C57.2304 114.285 57.2302 118.084 59.5732 120.427C61.9163 122.77 65.7154 122.77 68.0586 120.427L106.242 82.2422C108.585 79.899 108.585 76.101 106.242 73.7578L68.0586 35.5732C65.7154 33.2304 61.9163 33.2302 59.5732 35.5732C57.2302 37.9163 57.2304 41.7154 59.5732 44.0586L87.5146 72H0C2.82113 31.7646 36.3538 0 77.3066 0Z" fill="#F2F2F2"/>
</svg>
