<svg width="24" height="24" viewBox="0 0 24 24" fill="none" xmlns="http://www.w3.org/2000/svg">
<path d="M12 3C16.9706 3 21 7.02944 21 12C21 16.9706 16.9706 21 12 21C7.02944 21 3 16.9706 3 12C3 7.02944 7.02944 3 12 3ZM12 7.25C11.3649 7.25 10.8496 7.76526 10.8496 8.40039V11.0254C10.8496 12.0726 11.4668 13.0219 12.4238 13.4473L15.583 14.8516C16.1633 15.1094 16.8426 14.8478 17.1006 14.2676C17.3585 13.6872 17.097 13.007 16.5166 12.749L13.3574 11.3457C13.2312 11.2895 13.1504 11.1636 13.1504 11.0254V8.40039C13.1504 7.76526 12.6351 7.25 12 7.25Z" fill="#F7BE65"/>
</svg>
